# Blender v3.0.0 OBJ File: ''
# www.blender.org
mtllib Ball_5.mtl
o Ball_5_
v -0.003390 -0.298948 0.159903
v 0.000000 -0.310272 0.138142
v 0.000000 -0.295731 0.166680
v -0.003390 -0.310084 0.138058
v 0.000000 -0.323012 0.104953
v -0.003391 -0.322823 0.104891
v 0.000000 -0.332213 0.070614
v -0.003391 -0.332027 0.070574
v -0.001772 -0.334771 0.053825
v 0.000000 -0.334972 0.053196
v -0.003391 -0.334592 0.054405
v 0.041974 -0.238351 0.252384
v 0.064866 -0.223789 0.259890
v 0.048338 -0.220330 0.266330
v 0.041458 -0.239715 0.251263
v 0.076845 -0.225895 0.254877
v 0.070367 -0.243504 0.240354
v 0.040177 -0.242566 0.248535
v 0.067239 -0.252076 0.231979
v 0.040715 -0.266367 0.223086
v 0.030495 -0.262994 0.228032
v 0.061014 -0.269221 0.213680
v 0.019619 -0.281999 0.205404
v 0.055876 -0.283508 0.195924
v 0.019419 -0.282332 0.204988
v 0.041149 -0.290047 0.191196
v 0.052962 -0.291680 0.184490
v 0.047195 -0.308045 0.158145
v 0.019256 -0.302169 0.174459
v 0.015522 -0.287727 0.197023
v 0.041292 -0.310151 0.156454
v 0.046259 -0.310743 0.153020
v 0.041011 -0.326114 0.119699
v 0.040962 -0.326261 0.119373
v 0.019257 -0.318748 0.141906
v 0.040951 -0.326292 0.119294
v 0.014168 -0.302380 0.174580
v 0.014164 -0.289606 0.194249
v 0.013950 -0.285567 0.194254
v 0.019251 -0.331826 0.107797
v 0.037433 -0.337263 0.083982
v 0.037029 -0.338560 0.079207
v 0.014168 -0.318972 0.142006
v 0.013952 -0.299445 0.172885
v 0.005790 -0.296860 0.177580
v 0.014163 -0.332062 0.107875
v 0.019237 -0.341257 0.072511
v 0.035410 -0.344429 0.046975
v 0.034401 -0.344427 0.047465
v 0.016509 -0.344037 0.055723
v 0.014149 -0.341505 0.072566
v 0.014138 -0.343989 0.056822
v 0.013953 -0.315874 0.140631
v 0.013951 -0.328836 0.106836
v 0.013945 -0.338187 0.071871
v 0.014030 -0.342459 0.055091
v 0.013940 -0.341080 0.053528
v 0.011585 -0.299543 0.172942
v 0.011586 -0.315978 0.140678
v 0.006141 -0.299768 0.173071
v 0.003775 -0.299866 0.173128
v 0.003775 -0.299650 0.173460
v 0.003643 -0.296839 0.173496
v 0.006142 -0.316217 0.140784
v 0.011584 -0.328946 0.106872
v 0.003776 -0.316321 0.140830
v 0.011579 -0.338303 0.071896
v 0.012752 -0.341054 0.054075
v 0.011574 -0.341029 0.054621
v 0.008553 -0.340962 0.056014
v 0.006140 -0.329198 0.106954
v 0.006135 -0.338569 0.071954
v 0.006131 -0.340912 0.057134
v 0.003774 -0.329308 0.106990
v 0.003769 -0.338684 0.071979
v 0.004702 -0.340880 0.057793
v 0.003765 -0.340860 0.058226
v 0.003639 -0.336393 0.071495
v 0.003392 -0.335046 0.051631
v 0.003392 -0.332048 0.070579
v 0.003642 -0.327080 0.106269
v 0.003392 -0.322855 0.104902
v 0.003643 -0.314181 0.139879
v 0.003393 -0.310124 0.138076
v 0.003643 -0.297838 0.171957
v 0.003393 -0.293993 0.169737
v 0.003422 -0.292135 0.173556
v 0.003393 -0.291507 0.173565
v 0.001541 -0.294069 0.169781
v 0.000276 -0.295433 0.167235
v -0.044226 -0.337976 0.078236
v -0.043752 -0.338094 0.078143
v -0.043935 -0.337872 0.078800
v -0.043817 -0.337830 0.079029
v -0.019301 -0.331637 0.107746
v -0.042877 -0.338243 0.077891
v -0.028042 -0.330272 0.109810
v -0.034563 -0.339458 0.075258
v -0.017609 -0.323023 0.130396
v -0.019270 -0.341130 0.072498
v -0.020450 -0.341365 0.070608
v -0.019268 -0.341499 0.070189
v -0.018924 -0.341538 0.070066
v -0.014184 -0.341413 0.072564
v -0.014179 -0.342079 0.068387
v -0.014154 -0.341715 0.067950
v -0.014216 -0.331924 0.107843
v -0.014237 -0.320685 0.137049
v -0.014207 -0.320149 0.137162
v -0.013971 -0.338098 0.071859
v -0.013966 -0.339202 0.064929
v -0.013496 -0.339255 0.064761
v -0.011600 -0.339470 0.064089
v -0.013990 -0.328701 0.106796
v -0.014005 -0.316734 0.137894
v -0.013841 -0.316620 0.138218
v -0.011605 -0.338228 0.071888
v -0.010342 -0.339610 0.063640
v -0.011625 -0.328833 0.106841
v -0.006163 -0.338528 0.071956
v -0.006156 -0.340085 0.062155
v -0.005492 -0.340159 0.061918
v -0.003790 -0.340352 0.061314
v -0.011641 -0.315841 0.140618
v -0.012637 -0.315785 0.140593
v -0.011642 -0.314838 0.142583
v -0.006184 -0.329138 0.106943
v -0.003798 -0.338659 0.071986
v -0.003748 -0.339721 0.060558
v -0.006201 -0.316143 0.140756
v -0.006206 -0.309670 0.153451
v -0.003819 -0.329270 0.106987
v -0.003657 -0.336369 0.071498
v -0.003494 -0.336150 0.056271
v -0.003671 -0.327044 0.106264
v -0.003836 -0.316275 0.140816
v -0.003843 -0.307426 0.158175
v -0.003775 -0.306136 0.158436
v -0.003682 -0.314138 0.139863
v -0.003490 -0.300842 0.159520
v -0.195107 -0.053619 -0.179768
v -0.200466 -0.024895 -0.187029
v -0.176812 -0.021119 -0.226564
v 0.147623 -0.059650 -0.095976
v 0.115934 0.027513 0.015017
v 0.088720 -0.196619 0.222976
v -0.047224 0.025522 0.109631
v 0.120625 -0.137127 -0.236184
v -0.146626 -0.014958 -0.248447
v 0.074543 0.050266 0.019047
vt 0.464111 0.540039
vt 0.467773 0.546143
vt 0.462158 0.538818
vt 0.468262 0.545654
vt 0.474365 0.553955
vt 0.475098 0.553223
vt 0.481445 0.561279
vt 0.481934 0.560547
vt 0.485352 0.564209
vt 0.485107 0.564697
vt 0.485352 0.563721
vt 0.540039 0.510010
vt 0.536621 0.503174
vt 0.541504 0.503662
vt 0.539551 0.510498
vt 0.533203 0.502686
vt 0.531738 0.508789
vt 0.539551 0.511475
vt 0.530762 0.511963
vt 0.534180 0.519531
vt 0.537598 0.519531
vt 0.528320 0.518311
vt 0.535156 0.527832
vt 0.525879 0.523926
vt 0.535156 0.528076
vt 0.527832 0.528076
vt 0.523926 0.527344
vt 0.520020 0.534668
vt 0.528809 0.535889
vt 0.534180 0.530518
vt 0.520508 0.536377
vt 0.519043 0.536133
vt 0.513184 0.544189
vt 0.513184 0.544189
vt 0.522461 0.543457
vt 0.513184 0.544189
vt 0.529785 0.536621
vt 0.534180 0.531494
vt 0.535156 0.531494
vt 0.515137 0.550537
vt 0.506836 0.551758
vt 0.505859 0.552734
vt 0.523438 0.543945
vt 0.530762 0.536865
vt 0.533203 0.536865
vt 0.516602 0.551270
vt 0.508301 0.557129
vt 0.499756 0.558838
vt 0.500000 0.558838
vt 0.505371 0.560547
vt 0.509277 0.558105
vt 0.505859 0.560791
vt 0.523926 0.544434
vt 0.517090 0.551758
vt 0.509766 0.558594
vt 0.505859 0.561279
vt 0.505859 0.561768
vt 0.531250 0.537354
vt 0.524414 0.544922
vt 0.532227 0.538086
vt 0.532715 0.538330
vt 0.532715 0.538330
vt 0.533691 0.538330
vt 0.525879 0.545654
vt 0.517578 0.552002
vt 0.526367 0.546143
vt 0.510254 0.558838
vt 0.506348 0.561768
vt 0.506836 0.561768
vt 0.507812 0.562256
vt 0.518555 0.552979
vt 0.511230 0.559814
vt 0.508301 0.562500
vt 0.519043 0.553223
vt 0.511719 0.560303
vt 0.508789 0.562500
vt 0.508789 0.562500
vt 0.512207 0.560547
vt 0.508789 0.564941
vt 0.513184 0.561523
vt 0.519531 0.553711
vt 0.520508 0.554443
vt 0.526855 0.546387
vt 0.527344 0.547119
vt 0.533203 0.538818
vt 0.534180 0.539551
vt 0.534668 0.538330
vt 0.535156 0.538330
vt 0.534668 0.539795
vt 0.534180 0.540527
vt 0.528320 0.547852
vt 0.534180 0.540771
vt 0.520996 0.555176
vt 0.513672 0.562256
vt 0.509766 0.565430
vt 0.491211 0.551025
vt 0.490967 0.551270
vt 0.490967 0.551025
vt 0.490967 0.551025
vt 0.480469 0.549561
vt 0.490967 0.551514
vt 0.481689 0.547607
vt 0.489746 0.553467
vt 0.475586 0.544678
vt 0.487061 0.556641
vt 0.487793 0.556641
vt 0.487549 0.556885
vt 0.487549 0.557129
vt 0.486084 0.557373
vt 0.486816 0.558105
vt 0.486816 0.558350
vt 0.479248 0.550293
vt 0.473633 0.543701
vt 0.473389 0.543701
vt 0.485352 0.557861
vt 0.486816 0.559082
vt 0.486572 0.559082
vt 0.486328 0.559570
vt 0.478516 0.550537
vt 0.472412 0.543701
vt 0.472412 0.543701
vt 0.484863 0.558105
vt 0.486328 0.559814
vt 0.478027 0.550781
vt 0.483643 0.559082
vt 0.485840 0.560791
vt 0.485596 0.561035
vt 0.485352 0.561279
vt 0.471436 0.543213
vt 0.471680 0.543213
vt 0.470947 0.542969
vt 0.476807 0.551758
vt 0.483154 0.559326
vt 0.485352 0.561523
vt 0.470215 0.544189
vt 0.467773 0.541016
vt 0.476318 0.552002
vt 0.482910 0.559814
vt 0.485352 0.562988
vt 0.475830 0.552490
vt 0.469727 0.544434
vt 0.466553 0.540283
vt 0.466064 0.540283
vt 0.469238 0.544922
vt 0.464600 0.540039
vt 0.000000 0.986565
vt 0.008148 0.987457
vt 0.009224 1.000000
vt 0.037415 0.911743
vt 0.061218 0.943115
vt 0.000000 1.000000
vt 0.035126 0.992142
vt 0.102173 0.942261
vt 0.030228 0.987976
vt 0.088440 0.851318
vt 0.029846 0.987640
vt 0.080566 0.853760
vt 0.003065 0.935059
vt 0.003092 0.935242
vt 0.003103 0.935303
vt 0.013702 0.959930
vt 0.013191 0.959839
vt 0.014580 0.962006
vt 0.011742 0.959534
vt 0.029068 0.986816
vt 0.005165 0.944733
vt 0.014664 0.962158
vt 0.015038 0.962952
vt 0.015732 0.964081
vt 0.015564 0.964081
vt 0.023499 0.980652
vt 0.018326 0.973816
vt 0.010780 0.958038
vt 0.011391 0.959473
vt 0.009369 0.954712
vt 0.008888 0.953400
vt 0.009117 0.954102
vt 0.008858 0.953278
vt 0.007927 0.953094
vt 0.007141 0.951019
vt 0.007778 0.953064
vt 0.017349 0.970413
vt 0.018234 0.973694
vt 0.016769 0.971283
vt 0.016251 0.970444
vt 0.014275 0.965363
vt 0.014282 0.964111
vt 0.013512 0.964111
vt 0.059784 0.878601
vt 0.059753 0.879211
vt 0.060455 0.878784
vt 0.059723 0.879761
vt 0.065552 0.880432
vt 0.090210 0.975800
vt 0.065857 0.880554
vt 0.013847 1.000000
vt 0.005226 0.994385
vt 0.000000 0.978958
vt 0.056702 0.881226
vt 0.059387 0.879639
vt 0.059052 0.879578
vt 0.058167 0.879272
vt 0.057495 0.879028
vt 0.057068 0.878906
vt 0.056824 0.878845
vt 0.055725 0.880920
vt 0.055237 0.880798
vt 0.054779 0.880737
vt 0.054749 0.880066
vt 0.043243 0.875183
vt 0.043091 0.875183
vt 0.043488 0.875244
vt 0.049896 0.876160
vt 0.045868 0.875549
vt 0.051758 0.877747
vt 0.050232 0.876221
vt 0.050323 0.876282
vt 0.051697 0.876648
vt 0.051697 0.876526
vt 0.051880 0.877747
vt 0.052429 0.877869
vt 0.052795 0.877930
vt 0.054657 0.878540
vt 0.053986 0.878174
vt 0.054169 0.878174
vt 0.054657 0.878296
vt 0.096924 0.921875
vt 0.107422 0.927063
vt 0.106018 0.926270
vt 0.096863 0.921814
vt 0.114563 0.931763
vt 0.096802 0.921814
vt 0.117676 0.934143
vt 0.087219 0.918701
vt 0.122498 0.938263
vt 0.085876 0.918274
vt 0.125000 0.959442
vt 0.127563 0.943237
vt 0.077148 0.916626
vt 0.129761 0.945709
vt 0.133789 0.950836
vt 0.000000 0.977676
vt 0.038177 1.000000
vt 0.072937 0.922424
vt 0.000000 0.985107
vt 0.005966 0.993496
vt 0.016739 1.000000
vt 0.097595 0.956238
vt 0.065063 1.000000
vt 0.077271 0.995716
vt 0.086548 0.957458
vt 0.078613 0.913940
vt 0.000000 0.929199
vt 0.000000 0.978821
vt 0.048401 0.996014
vt 0.036133 1.000000
vt 0.040314 0.912842
vt 0.033264 0.900635
vt 0.036804 0.901123
vt 0.028351 0.900208
vn -0.0628 -0.8797 0.4713
vn -0.0078 -0.9125 0.4090
vn -0.0080 -0.8730 0.4876
vn -0.0628 -0.9107 0.4083
vn -0.0078 -0.9517 0.3068
vn -0.0550 -0.9503 0.3063
vn -0.0000 -0.9787 0.2052
vn -0.0552 -0.9772 0.2049
vn -0.0316 -0.9869 0.1579
vn 0.0000 -0.9874 0.1580
vn -0.0552 -0.9859 0.1577
vn 0.1253 -0.6817 0.7208
vn 0.1899 -0.6409 0.7438
vn 0.1417 -0.6298 0.7637
vn 0.1261 -0.6855 0.7170
vn 0.2203 -0.6451 0.7316
vn 0.2045 -0.7000 0.6842
vn 0.1183 -0.6942 0.7100
vn 0.1967 -0.7241 0.6611
vn 0.1179 -0.7622 0.6365
vn 0.0941 -0.7531 0.6511
vn 0.1806 -0.7695 0.6125
vn 0.0631 -0.8041 0.5911
vn 0.1656 -0.8120 0.5597
vn 0.0627 -0.8068 0.5875
vn 0.1263 -0.8290 0.5448
vn 0.1575 -0.8347 0.5276
vn 0.1418 -0.8822 0.4490
vn 0.0630 -0.8660 0.4960
vn -0.4938 -0.7211 0.4860
vn 0.1254 -0.8858 0.4468
vn 0.1336 -0.8880 0.4401
vn 0.1262 -0.9321 0.3396
vn 0.1265 -0.9319 0.3398
vn 0.0630 -0.9136 0.4017
vn 0.1264 -0.9320 0.3397
vn -0.6545 -0.6545 0.3785
vn -0.6542 -0.6305 0.4177
vn -0.6793 -0.6082 0.4107
vn 0.0550 -0.9503 0.3063
vn 0.1108 -0.9651 0.2373
vn 0.1101 -0.9674 0.2281
vn -0.6531 -0.6924 0.3069
vn -0.6764 -0.6371 0.3696
vn -0.0551 -0.8576 0.5114
vn -0.6547 -0.7179 0.2366
vn 0.0552 -0.9772 0.2049
vn 0.1026 -0.9857 0.1340
vn 0.1027 -0.9856 0.1340
vn -0.3528 -0.9250 0.1411
vn -0.6536 -0.7403 0.1575
vn -0.6527 -0.7471 0.1258
vn -0.6785 -0.6706 0.2998
vn -0.6766 -0.7001 0.2281
vn -0.6791 -0.7186 0.1500
vn -0.6699 -0.7330 0.1182
vn -0.6787 -0.7260 0.1105
vn 0.0473 -0.8668 0.4965
vn 0.0471 -0.9115 0.4086
vn -0.6589 -0.6512 0.3765
vn -0.6590 -0.6512 0.3765
vn -0.9984 -0.0472 0.0312
vn 0.0472 -0.9115 0.4086
vn 0.0472 -0.9507 0.3065
vn -0.6611 -0.6847 0.3069
vn 0.0473 -0.9776 0.2050
vn -0.3382 -0.9279 0.1572
vn 0.0474 -0.9863 0.1578
vn 0.0473 -0.9851 0.1655
vn -0.6592 -0.7141 0.2354
vn -0.6536 -0.7402 0.1575
vn -0.4008 -0.9039 0.1494
vn -0.6610 -0.7397 0.1259
vn -0.9985 -0.0550 0.0079
vn -0.9984 -0.0550 0.0157
vn -0.9984 -0.0551 0.0157
vn -0.9982 -0.0550 0.0236
vn -0.9984 -0.0472 0.0314
vn -0.9984 -0.0471 0.0313
vn 0.0472 -0.8579 0.5116
vn 0.0158 -0.8677 0.4969
vn -0.0000 -0.8697 0.4936
vn 0.0471 -0.9507 0.3064
vn 0.0474 -0.9875 0.1501
vn -0.1256 -0.9656 0.2277
vn -0.1258 -0.9673 0.2202
vn -0.1252 -0.9657 0.2276
vn -0.1262 -0.9655 0.2279
vn -0.0628 -0.9499 0.3062
vn -0.0866 -0.9451 0.3150
vn -0.1027 -0.9716 0.2133
vn 0.1897 -0.9089 0.3715
vn -0.0630 -0.9768 0.2048
vn -0.0629 -0.9768 0.2048
vn -0.0157 -0.9786 0.2052
vn 0.6536 -0.7403 0.1575
vn 0.6544 -0.7411 0.1498
vn 0.6511 -0.7216 0.2353
vn 0.6465 -0.7017 0.2996
vn 0.6546 -0.6940 0.2997
vn 0.6744 -0.7215 0.1568
vn 0.6760 -0.7232 0.1415
vn 0.5575 -0.8166 0.1492
vn -0.0549 -0.9806 0.1883
vn 0.6765 -0.7002 0.2282
vn 0.6706 -0.6786 0.2998
vn 0.6320 -0.7111 0.3082
vn -0.0550 -0.9820 0.1807
vn -0.0549 -0.9820 0.1807
vn 0.1502 -0.9718 0.1817
vn 0.6559 -0.7428 0.1343
vn 0.2671 -0.8799 0.3929
vn -0.0633 -0.9094 0.4112
vn 0.6537 -0.7402 0.1574
vn 0.8201 -0.5599 0.1183
vn -0.0629 -0.8958 0.4400
vn 0.6510 -0.7217 0.2354
vn 0.9984 -0.0550 0.0157
vn 0.9985 -0.0551 0.0079
vn 0.9985 -0.0550 0.0079
vn 0.9979 -0.0628 0.0157
vn 0.9977 -0.0629 0.0236
vn 0.9977 -0.0628 0.0236
vn 0.6485 -0.6959 0.3084
vn 0.6472 -0.6787 0.3473
vn 0.8722 -0.4243 0.2436
vn 0.9980 -0.0550 0.0314
vn -0.8110 -0.2834 -0.5118
vn 0.9741 0.0785 0.2121
vn -0.8838 -0.0474 0.4655
vn -0.8838 -0.0473 0.4655
vn -0.8839 -0.0474 0.4653
vn -0.8838 -0.0474 0.4654
vn -0.8838 -0.0473 0.4654
vn -0.8839 -0.0474 0.4654
vn -0.8838 -0.0471 0.4654
vn -0.8839 -0.0474 0.4652
vn -0.8834 -0.0475 0.4662
vn -0.8837 -0.0474 0.4656
vn -0.8837 -0.0473 0.4656
vn -0.8840 -0.0474 0.4651
vn -0.2990 -0.7240 -0.6217
vn -0.2991 -0.7240 -0.6216
vn -0.2990 -0.7239 -0.6217
vn -0.2991 -0.7240 -0.6217
vn -0.2990 -0.7240 -0.6216
vn -0.2991 -0.7242 -0.6214
vn -0.2991 -0.7239 -0.6218
vn 0.9317 -0.3628 0.0157
vn 0.9326 -0.3605 0.0157
vn 0.9322 -0.3615 0.0161
vn -0.2293 0.9722 -0.0474
vn 0.3771 0.7778 -0.5028
vn 0.3951 0.6004 0.6953
vn 0.3950 0.6004 0.6953
vn 0.3950 0.6005 0.6953
usemtl MI_Ball_01.003
s 1
f 1/1/1 2/2/2 3/3/3
f 1/1/1 4/4/4 2/2/2
f 5/5/5 2/2/2 4/4/4
f 4/4/4 6/6/6 5/5/5
f 7/7/7 5/5/5 6/6/6
f 6/6/6 8/8/8 7/7/7
f 9/9/9 7/7/7 8/8/8
f 10/10/10 7/7/7 9/9/9
f 8/8/8 11/11/11 9/9/9
f 12/12/12 13/13/13 14/14/14
f 12/12/12 15/15/15 13/13/13
f 13/13/13 15/15/15 16/16/16
f 17/17/17 16/16/16 15/15/15
f 17/17/17 15/15/15 18/18/18
f 19/19/19 17/17/17 18/18/18
f 18/18/18 20/20/20 19/19/19
f 21/21/21 20/20/20 18/18/18
f 19/19/19 20/20/20 22/22/22
f 23/23/23 20/20/20 21/21/21
f 22/22/22 20/20/20 24/24/24
f 23/23/23 25/25/25 20/20/20
f 20/20/20 26/26/26 24/24/24
f 25/25/25 26/26/26 20/20/20
f 27/27/27 24/24/24 26/26/26
f 27/27/27 26/26/26 28/28/28
f 25/25/25 29/29/29 26/26/26
f 25/25/25 30/30/30 29/29/29
f 26/26/26 31/31/31 28/28/28
f 29/29/29 31/31/31 26/26/26
f 32/32/32 28/28/28 31/31/31
f 32/32/32 31/31/31 33/33/33
f 33/33/33 31/31/31 34/34/34
f 34/34/34 31/31/31 35/35/35
f 29/29/29 35/35/35 31/31/31
f 34/34/34 35/35/35 36/36/36
f 30/30/30 37/37/37 29/29/29
f 35/35/35 29/29/29 37/37/37
f 30/30/30 38/38/38 37/37/37
f 38/38/38 39/39/39 37/37/37
f 35/35/35 40/40/40 36/36/36
f 41/41/41 36/36/36 40/40/40
f 41/41/41 40/40/40 42/42/42
f 37/37/37 43/43/43 35/35/35
f 40/40/40 35/35/35 43/43/43
f 39/39/39 44/44/44 37/37/37
f 43/43/43 37/37/37 44/44/44
f 39/39/39 45/45/45 44/44/44
f 43/43/43 46/46/46 40/40/40
f 40/40/40 47/47/47 42/42/42
f 47/47/47 40/40/40 46/46/46
f 42/42/42 47/47/47 48/48/48
f 49/49/49 48/48/48 47/47/47
f 50/50/50 49/49/49 47/47/47
f 50/50/50 47/47/47 51/51/51
f 46/46/46 51/51/51 47/47/47
f 52/52/52 50/50/50 51/51/51
f 46/46/46 43/43/43 53/53/53
f 44/44/44 53/53/53 43/43/43
f 51/51/51 46/46/46 54/54/54
f 53/53/53 54/54/54 46/46/46
f 52/52/52 51/51/51 55/55/55
f 54/54/54 55/55/55 51/51/51
f 56/56/56 52/52/52 55/55/55
f 57/57/57 56/56/56 55/55/55
f 53/53/53 44/44/44 58/58/58
f 45/45/45 58/58/58 44/44/44
f 54/54/54 53/53/53 59/59/59
f 58/58/58 59/59/59 53/53/53
f 45/45/45 60/60/58 58/58/58
f 59/59/59 58/58/58 60/60/58
f 45/45/45 61/61/60 60/60/58
f 45/45/45 62/62/61 61/61/60
f 62/62/61 63/63/62 61/61/60
f 60/60/58 64/64/63 59/59/59
f 64/64/63 60/60/58 61/61/60
f 59/59/59 65/65/64 54/54/54
f 65/65/64 59/59/59 64/64/63
f 55/55/55 54/54/54 65/65/64
f 61/61/60 66/66/65 64/64/63
f 65/65/64 67/67/66 55/55/55
f 57/57/57 55/55/55 67/67/66
f 68/68/67 57/57/57 67/67/66
f 69/69/68 68/68/67 67/67/66
f 69/69/68 67/67/66 70/70/69
f 64/64/63 71/71/64 65/65/64
f 67/67/66 65/65/64 71/71/64
f 71/71/64 64/64/63 66/66/65
f 70/70/69 67/67/66 72/72/66
f 71/71/64 72/72/66 67/67/66
f 72/72/66 73/73/69 70/70/69
f 72/72/66 71/71/64 74/74/70
f 66/66/65 74/74/70 71/71/64
f 73/73/69 72/72/66 75/75/71
f 74/74/70 75/75/71 72/72/66
f 76/76/72 73/73/69 75/75/71
f 76/76/72 75/75/71 77/77/73
f 77/77/73 75/75/71 78/78/74
f 79/79/74 77/77/73 78/78/74
f 78/78/74 80/80/74 79/79/74
f 81/81/75 78/78/74 75/75/71
f 80/80/74 78/78/74 81/81/75
f 75/75/71 74/74/70 81/81/75
f 81/81/75 82/82/76 80/80/74
f 83/83/77 81/81/75 74/74/70
f 82/82/76 81/81/75 83/83/77
f 74/74/70 66/66/65 83/83/77
f 83/83/77 84/84/77 82/82/76
f 85/85/78 83/83/77 66/66/65
f 84/84/77 83/83/77 85/85/78
f 66/66/65 61/61/60 85/85/78
f 85/85/78 86/86/78 84/84/77
f 63/63/62 85/85/78 61/61/60
f 86/86/78 85/85/78 63/63/62
f 63/63/62 87/87/78 86/86/78
f 87/87/78 88/88/79 86/86/78
f 86/86/58 88/88/80 89/89/81
f 89/89/81 90/90/82 86/86/58
f 84/84/59 86/86/58 90/90/82
f 90/90/82 2/91/2 84/84/59
f 3/92/3 2/91/2 90/90/82
f 82/82/83 84/84/59 2/91/2
f 2/91/2 5/93/5 82/82/83
f 80/80/66 82/82/83 5/93/5
f 5/93/5 7/94/7 80/80/66
f 10/95/10 80/80/66 7/94/7
f 79/79/84 80/80/66 10/95/10
f 91/96/85 92/97/86 93/98/87
f 92/97/86 94/99/88 93/98/87
f 92/97/86 95/100/89 94/99/88
f 96/101/86 95/100/89 92/97/86
f 94/99/88 95/100/89 97/102/90
f 98/103/91 95/100/89 96/101/86
f 97/102/90 95/100/89 99/104/92
f 98/103/91 100/105/93 95/100/89
f 101/106/93 100/105/93 98/103/91
f 102/107/94 100/105/93 101/106/93
f 102/107/94 103/108/95 100/105/93
f 103/108/95 104/109/96 100/105/93
f 95/100/89 100/105/93 104/109/96
f 103/108/95 105/110/97 104/109/96
f 104/109/96 105/110/97 106/111/97
f 99/104/92 95/100/89 107/112/98
f 104/109/96 107/112/98 95/100/89
f 99/104/92 107/112/98 108/113/99
f 108/113/99 107/112/98 109/114/100
f 106/111/97 110/115/101 104/109/96
f 107/112/98 104/109/96 110/115/101
f 106/111/97 111/116/102 110/115/101
f 111/116/102 112/117/103 110/115/101
f 112/117/103 113/118/104 110/115/101
f 109/114/100 107/112/98 114/119/105
f 110/115/101 114/119/105 107/112/98
f 115/120/106 109/114/100 114/119/105
f 116/121/107 115/120/106 114/119/105
f 113/118/104 117/122/8 110/115/101
f 114/119/105 110/115/101 117/122/8
f 118/123/108 117/122/8 113/118/104
f 116/121/107 114/119/105 119/124/6
f 117/122/8 119/124/6 114/119/105
f 118/123/108 120/125/8 117/122/8
f 119/124/6 117/122/8 120/125/8
f 118/123/108 121/126/109 120/125/8
f 121/126/109 122/127/110 120/125/8
f 122/127/110 123/128/111 120/125/8
f 119/124/6 124/129/4 116/121/107
f 116/121/107 124/129/4 125/130/112
f 126/131/113 125/130/112 124/129/4
f 120/125/8 127/132/6 119/124/6
f 124/129/4 119/124/6 127/132/6
f 123/128/111 128/133/114 120/125/8
f 127/132/6 120/125/8 128/133/114
f 123/128/111 129/134/115 128/133/114
f 126/131/113 124/129/4 130/135/4
f 127/132/6 130/135/4 124/129/4
f 131/136/116 126/131/113 130/135/4
f 128/133/114 132/137/117 127/132/6
f 130/135/4 127/132/6 132/137/117
f 129/134/115 133/138/118 128/133/114
f 132/137/117 128/133/114 133/138/118
f 134/139/119 133/138/118 129/134/115
f 11/11/120 8/8/118 134/139/119
f 8/8/118 133/138/118 134/139/119
f 133/138/118 8/8/118 6/6/121
f 6/6/121 135/140/122 133/138/118
f 133/138/118 135/140/122 132/137/117
f 135/140/122 6/6/121 4/4/123
f 132/137/117 136/141/124 130/135/4
f 136/141/124 132/137/117 135/140/122
f 131/136/116 130/135/4 136/141/124
f 131/136/116 136/141/124 137/142/125
f 138/143/126 137/142/125 136/141/124
f 4/4/123 139/144/123 135/140/122
f 135/140/122 139/144/123 136/141/124
f 138/143/126 136/141/124 139/144/123
f 139/144/123 4/4/123 1/1/127
f 139/144/123 140/145/127 138/143/126
f 1/1/127 140/145/127 139/144/123
f 141/146/128 142/147/128 143/148/128
f 144/149/129 145/150/129 146/151/129
f 14/152/130 147/153/131 12/154/132
f 147/153/131 142/155/133 12/154/132
f 142/155/133 15/156/133 12/154/132
f 142/155/133 141/157/131 91/158/134
f 91/158/134 93/159/130 142/155/133
f 142/155/133 93/159/130 94/160/130
f 142/155/133 1/161/132 15/156/133
f 142/155/133 140/162/133 1/161/132
f 15/156/133 1/161/132 3/163/135
f 142/155/133 138/164/133 140/162/133
f 142/155/133 94/160/130 138/164/133
f 15/156/133 3/163/135 18/165/135
f 138/164/133 94/160/130 97/166/133
f 18/165/135 3/163/135 90/167/136
f 89/168/137 88/169/132 90/167/136
f 18/165/135 90/167/136 88/169/132
f 87/170/137 18/165/135 88/169/132
f 87/170/137 21/171/130 18/165/135
f 21/171/130 87/170/137 23/172/132
f 138/164/133 131/173/133 137/174/130
f 131/173/133 138/164/133 126/175/132
f 116/176/138 125/177/139 126/175/132
f 126/175/132 138/164/133 116/176/138
f 116/176/138 138/164/133 115/178/133
f 138/164/133 97/166/133 115/178/133
f 97/166/133 109/179/130 115/178/133
f 109/179/130 97/166/133 99/180/131
f 108/181/133 109/179/130 99/180/131
f 23/172/132 87/170/137 39/182/140
f 23/172/132 39/182/140 25/183/141
f 25/183/141 39/182/140 30/184/130
f 38/185/133 30/184/130 39/182/140
f 39/182/140 87/170/137 45/186/132
f 87/170/137 63/187/130 45/186/132
f 45/186/132 63/187/130 62/188/133
f 52/189/142 56/190/142 50/191/142
f 50/191/142 56/190/142 57/192/142
f 50/191/142 57/192/142 49/193/142
f 148/194/142 48/195/142 49/193/142
f 149/196/142 148/194/142 49/193/142
f 49/193/142 143/197/142 149/196/142
f 49/193/142 141/198/143 143/197/142
f 49/193/142 57/192/142 79/199/142
f 49/193/142 79/199/142 141/198/143
f 68/200/144 79/199/142 57/192/142
f 69/201/142 79/199/142 68/200/144
f 79/199/142 69/201/142 70/202/142
f 79/199/142 70/202/142 73/203/142
f 79/199/142 73/203/142 76/204/145
f 79/199/142 76/204/145 77/205/142
f 141/198/143 79/199/142 10/206/142
f 141/198/143 10/206/142 9/207/142
f 11/208/146 141/198/143 9/207/142
f 134/209/142 141/198/143 11/208/146
f 92/210/142 91/211/144 141/198/143
f 141/198/143 96/212/142 92/210/142
f 96/212/142 101/213/142 98/214/147
f 141/198/143 101/213/142 96/212/142
f 101/213/142 141/198/143 111/215/145
f 111/215/145 102/216/143 101/213/142
f 111/215/145 103/217/146 102/216/143
f 111/215/145 106/218/142 103/217/146
f 105/219/142 103/217/146 106/218/142
f 141/198/143 112/220/145 111/215/145
f 112/220/145 141/198/143 134/209/142
f 113/221/146 112/220/145 134/209/142
f 134/209/142 118/222/142 113/221/146
f 118/222/142 134/209/142 129/223/146
f 118/222/142 129/223/146 121/224/142
f 121/224/142 129/223/146 122/225/148
f 129/223/146 123/226/146 122/225/148
f 33/227/149 28/228/150 32/229/150
f 34/230/151 28/228/150 33/227/149
f 34/230/151 27/231/150 28/228/150
f 36/232/150 27/231/150 34/230/151
f 36/232/150 24/233/150 27/231/150
f 41/234/150 24/233/150 36/232/150
f 41/234/150 22/235/150 24/233/150
f 42/236/150 22/235/150 41/234/150
f 42/236/150 146/237/150 22/235/150
f 22/235/150 146/237/150 19/238/150
f 48/239/150 146/237/150 42/236/150
f 19/238/150 146/237/150 17/240/150
f 146/237/150 16/241/150 17/240/150
f 146/237/150 48/239/150 148/242/150
f 146/237/150 148/242/150 144/243/150
f 150/244/152 149/245/152 143/246/152
f 150/244/152 143/246/152 142/247/152
f 150/244/152 142/247/152 147/248/152
f 150/249/153 145/250/153 144/251/153
f 150/249/153 144/251/153 148/252/153
f 150/249/153 148/252/153 149/253/153
f 147/254/154 145/255/155 150/256/154
f 147/254/154 146/257/156 145/255/155
f 146/257/156 147/254/154 13/258/154
f 13/258/154 16/259/154 146/257/156
f 147/254/154 14/260/156 13/258/154
